<svg id="icons" xmlns="http://www.w3.org/2000/svg" viewBox="0 0 128 128"><defs><style>.cls-1,.cls-6{fill:none;stroke:#493555;stroke-linecap:round;stroke-linejoin:round;}.cls-1{stroke-width:6px;}.cls-2{fill:#ffeb73;}.cls-3{fill:#84ccfc;}.Graphic-Style-9{fill:#493555;opacity:0.24;}.cls-4{fill:#25db7e;}.cls-5{fill:#ff6c65;}.cls-6{stroke-width:2px;}</style></defs><title>christnas-bauble</title><path class="cls-1" d="M97.13,58.39c0-.01,0-.01-.01-.01A38.065,38.065,0,0,0,76.38,41.07,2.009,2.009,0,0,1,75,39.17V36a3.995,3.995,0,0,0,4-4,8,8,0,0,0-8-8H70V19a6.009,6.009,0,0,0-6-6,6,6,0,0,0-6,6v5H57a7.976,7.976,0,0,0-7.966,7.334h0c-.018.22-.034.441-.034.666a4,4,0,0,0,4,4v3.17a2.009,2.009,0,0,1-1.38,1.9A38.141,38.141,0,0,0,30.88,58.36l-.01.01v.01a37.8,37.8,0,0,0-4.81,20.63c0,.09.01.17.01.26a37.132,37.132,0,0,0,2.11,10.36v.01a38,38,0,0,0,71.66.03v-.01a37.792,37.792,0,0,0,2.11-10.64V79c.03-.66.05-1.33.05-2A37.788,37.788,0,0,0,97.13,58.39ZM62,19a2.006,2.006,0,0,1,2-2,2.014,2.014,0,0,1,2,2v5H62Z"/><g id="_Group_" data-name="&lt;Group&gt;"><path class="cls-2" d="M70,19v5H66V19a2.014,2.014,0,0,0-2-2,2.006,2.006,0,0,0-2,2v5H58V19a6,6,0,0,1,6-6,6.009,6.009,0,0,1,6,6Z"/><path class="cls-3" d="M79,32a3.995,3.995,0,0,1-4,4H53a4,4,0,0,1-4-4,7.989,7.989,0,0,1,8-8H71A8,8,0,0,1,79,32Z"/><path class="Graphic-Style-9" d="M76.467,32H51.533a4.947,4.947,0,0,1-2.5-.666c-.018.22-.034.441-.034.666a4,4,0,0,0,4,4H75a3.995,3.995,0,0,0,4-4c0-.225-.015-.447-.034-.668A4.964,4.964,0,0,1,76.467,32Z"/><path class="cls-3" d="M99.84,89.66v.01a38,38,0,0,1-71.66-.03v-.01C29.77,87.15,31.56,85,34.66,85c7.33,0,7.33,12,14.66,12s7.34-12,14.67-12,7.33,12,14.66,12,7.34-12,14.68-12C96.45,85,98.24,87.16,99.84,89.66Z"/><path class="cls-4" d="M102,77c0,.67-.02,1.34-.05,2-2.38-3.49-4.12-8-8.62-8-7.34,0-7.34,12-14.68,12S71.32,71,63.99,71,56.66,83,49.32,83,41.99,71,34.66,71c-4.5,0-6.24,4.52-8.6,8.01a37.8,37.8,0,0,1,4.81-20.63v-.01l.01-.01A5.812,5.812,0,0,1,34.66,57c7.33,0,7.33,12,14.66,12s7.34-12,14.67-12,7.33,12,14.66,12,7.34-12,14.68-12a5.748,5.748,0,0,1,3.79,1.38c.01,0,.01,0,.01.01A37.788,37.788,0,0,1,102,77Z"/><path class="cls-5" d="M101.95,79v.02a37.792,37.792,0,0,1-2.11,10.64c-1.6-2.5-3.39-4.66-6.51-4.66-7.34,0-7.34,12-14.68,12S71.32,85,63.99,85,56.66,97,49.32,97,41.99,85,34.66,85c-3.1,0-4.89,2.15-6.48,4.63a37.13,37.13,0,0,1-2.11-10.36c0-.09-.01-.17-.01-.26,2.36-3.49,4.1-8.01,8.6-8.01,7.33,0,7.33,12,14.66,12s7.34-12,14.67-12,7.33,12,14.66,12,7.34-12,14.68-12C97.83,71,99.57,75.51,101.95,79Z"/><path class="cls-5" d="M76.38,41.07A38.065,38.065,0,0,1,97.12,58.38,5.748,5.748,0,0,0,93.33,57c-7.34,0-7.34,12-14.68,12S71.32,57,63.99,57,56.66,69,49.32,69,41.99,57,34.66,57a5.812,5.812,0,0,0-3.78,1.36A38.141,38.141,0,0,1,51.62,41.07,2.009,2.009,0,0,0,53,39.17V36H75v3.17A2.009,2.009,0,0,0,76.38,41.07Z"/><path class="Graphic-Style-9" d="M64,111A38,38,0,0,1,26.053,75Q26,75.994,26,77a38,38,0,0,0,76,0q0-1.006-.053-2A38,38,0,0,1,64,111Z"/><path class="Graphic-Style-9" d="M75,36v2L52.91,39.75a1.853,1.853,0,0,0,.09-.58V36Z"/><path class="cls-6" d="M30.88,58.36A38.141,38.141,0,0,1,51.62,41.07,2.009,2.009,0,0,0,53,39.17V36"/><path class="cls-6" d="M28.18,89.63a37.13,37.13,0,0,1-2.11-10.36c0-.09-.01-.17-.01-.26a37.8,37.8,0,0,1,4.81-20.63"/><path class="cls-6" d="M99.84,89.67a38,38,0,0,1-71.66-.03"/><path class="cls-6" d="M101.95,79.02a37.792,37.792,0,0,1-2.11,10.64"/><path class="cls-6" d="M97.13,58.39A37.788,37.788,0,0,1,102,77c0,.67-.02,1.34-.05,2"/><path class="cls-6" d="M75,36v3.17a2.009,2.009,0,0,0,1.38,1.9A38.065,38.065,0,0,1,97.12,58.38"/><path class="cls-6" d="M75,36H53a4,4,0,0,1-4-4,7.989,7.989,0,0,1,8-8H71a8,8,0,0,1,8,8,3.995,3.995,0,0,1-4,4Z"/><path class="cls-6" d="M58,24V19a6,6,0,0,1,6-6,6.009,6.009,0,0,1,6,6v5"/><path class="cls-6" d="M62,24V19a2.006,2.006,0,0,1,2-2,2.014,2.014,0,0,1,2,2v5"/><path class="cls-6" d="M26.06,79.01c2.36-3.49,4.1-8.01,8.6-8.01,7.33,0,7.33,12,14.66,12s7.34-12,14.67-12,7.33,12,14.66,12,7.34-12,14.68-12c4.5,0,6.24,4.51,8.62,8v.02"/><path class="cls-6" d="M28.18,89.64v-.01C29.77,87.15,31.56,85,34.66,85c7.33,0,7.33,12,14.66,12s7.34-12,14.67-12,7.33,12,14.66,12,7.34-12,14.68-12c3.12,0,4.91,2.16,6.51,4.66v.01"/><path class="cls-6" d="M30.87,58.38v-.01l.01-.01A5.812,5.812,0,0,1,34.66,57c7.33,0,7.33,12,14.66,12s7.34-12,14.67-12,7.33,12,14.66,12,7.34-12,14.68-12a5.748,5.748,0,0,1,3.79,1.38c.01,0,.01,0,.01.01"/></g></svg>