<svg id="icons" xmlns="http://www.w3.org/2000/svg" viewBox="0 0 128 128"><defs><style>.Graphic-Style-10,.cls-6{fill:none;stroke:#493555;stroke-linecap:round;stroke-linejoin:round;}.Graphic-Style-10{stroke-width:6px;}.cls-1{fill:#84ccfc;}.cls-2{fill:#ffeb73;}.cls-3{fill:#25db7e;}.Graphic-Style-9{fill:#493555;opacity:0.24;}.cls-4{fill:#f4b86f;}.cls-5{fill:#ff6c65;}.cls-6{stroke-width:2px;}</style></defs><title>christmas-tree</title><path class="Graphic-Style-10" d="M79.76,75.74c.96-.17,1.84-.36,2.64-.54A26.849,26.849,0,0,0,89,73a49.365,49.365,0,0,1-6.28-8.07A4,4,0,0,0,80,58a4.148,4.148,0,0,0-1.22.19c-1.91-3.57-3.43-6.92-4.41-9.31A24.923,24.923,0,0,0,82,46c-9.5-6.04-16.03-21.05-17.61-25.02a4,4,0,1,0-.78,0C62.03,24.95,55.5,39.96,46,46a24.923,24.923,0,0,0,7.63,2.88C51.22,54.81,45.35,66.65,39,73a26.849,26.849,0,0,0,6.6,2.2c.8.18,1.68.37,2.64.54a85.052,85.052,0,0,1-3.67,8.59A3.906,3.906,0,0,0,43,84a4,4,0,0,0-2.28,7.28C38.6,94.62,36.29,97.47,34,99c0,0,7.56,5.04,25,5.88V115H69V104.88C86.44,104.04,94,99,94,99,88.28,95.18,82.43,83.16,79.76,75.74Z"/><g id="_Group_" data-name="&lt;Group&gt;"><circle class="cls-1" cx="76" cy="93" r="4"/><path class="cls-2" d="M44.57,84.33A3.983,3.983,0,1,1,43,84,3.906,3.906,0,0,1,44.57,84.33Z"/><path class="cls-2" d="M80,58a4,4,0,1,1-1.22.19A4.148,4.148,0,0,1,80,58Z"/><path class="cls-2" d="M64.39,20.98c-.13.01-.26.02-.39.02s-.26-.01-.39-.02a4,4,0,1,1,.78,0Z"/><path class="cls-3" d="M82,46a24.924,24.924,0,0,1-7.63,2.88A45.311,45.311,0,0,1,65,49.99a4,4,0,0,0-7.97-.47c-1.24-.18-2.37-.4-3.4-.64A24.924,24.924,0,0,1,46,46c9.5-6.04,16.03-21.05,17.61-25.02.13.01.26.02.39.02s.26-.01.39-.02C65.97,24.95,72.5,39.96,82,46Z"/><path class="Graphic-Style-9" d="M64,46a41.1,41.1,0,0,1-14.787-2.465A24.7,24.7,0,0,1,46,46s6,4,18,4,18-4,18-4a24.7,24.7,0,0,1-3.213-2.465A41.1,41.1,0,0,1,64,46Z"/><path class="cls-3" d="M89,73a26.85,26.85,0,0,1-6.6,2.2c-.8.18-1.68.37-2.64.54a77.453,77.453,0,0,1-9.77,1.1,4,4,0,0,0-7.99.14,85.621,85.621,0,0,1-13.76-1.24c-.96-.17-1.84-.36-2.64-.54A26.85,26.85,0,0,1,39,73c6.35-6.35,12.22-18.19,14.63-24.12,1.03.24,2.16.46,3.4.64A3.866,3.866,0,0,0,57,50a4,4,0,0,0,8,0v-.01a45.311,45.311,0,0,0,9.37-1.11c.98,2.39,2.5,5.74,4.41,9.31a4,4,0,1,0,3.94,6.74A49.363,49.363,0,0,0,89,73Z"/><path class="cls-3" d="M94,99s-7.56,5.04-25,5.88c-1.58.08-3.25.12-5,.12s-3.42-.04-5-.12C41.56,104.04,34,99,34,99c2.29-1.53,4.6-4.38,6.72-7.72a3.994,3.994,0,1,0,3.85-6.95,85.063,85.063,0,0,0,3.67-8.59A85.621,85.621,0,0,0,62,76.98V77a4,4,0,0,0,8,0,.86.86,0,0,0-.01-.16,77.453,77.453,0,0,0,9.77-1.1C82.43,83.16,88.28,95.18,94,99ZM80,93a4,4,0,1,0-4,4A4,4,0,0,0,80,93Z"/><path class="Graphic-Style-9" d="M41.333,92a3.007,3.007,0,0,0-.039-.393,4.1,4.1,0,0,1-.574-.327A40.153,40.153,0,0,1,37.4,95.843C39.663,95.379,41.333,93.844,41.333,92Z"/><path class="Graphic-Style-9" d="M64,80.98a55.924,55.924,0,0,0,16.753-2.648c-.364-.905-.7-1.78-.993-2.592A77.661,77.661,0,0,1,64,76.98c-9,0-12.29-.61-15.76-1.24-.487,1.353-1.087,2.868-1.768,4.452A143.8,143.8,0,0,0,64,80.98Z"/><path class="cls-4" d="M69,104.88V115H59V104.88c1.58.08,3.25.12,5,.12S67.42,104.96,69,104.88Z"/><rect class="Graphic-Style-9" x="59" y="111" width="10" height="4"/><path class="Graphic-Style-9" d="M91.142,96.447C87.525,98,80.36,100.333,69,100.88c-1.58.08-3.25.12-5,.12s-3.42-.04-5-.12C47.641,100.333,40.477,98,36.859,96.447A16.174,16.174,0,0,1,34,99s7.56,5.04,25,5.88c1.58.08,3.25.12,5,.12s3.42-.04,5-.12C86.44,104.04,94,99,94,99A16.25,16.25,0,0,1,91.142,96.447Z"/><path class="Graphic-Style-9" d="M64,73c-11.871,0-18.955-1.739-22.4-2.924A36.721,36.721,0,0,1,39,73s7,4,25,4,25-4,25-4a36.682,36.682,0,0,1-2.6-2.923C82.949,71.262,75.866,73,64,73Z"/><path class="cls-5" d="M69.99,76.84A.86.86,0,0,1,70,77a4,4,0,0,1-8,0v-.02a4,4,0,0,1,7.99-.14Z"/><path class="cls-1" d="M65,49.99V50a4,4,0,0,1-8,0,3.866,3.866,0,0,1,.03-.48,4,4,0,0,1,7.97.47Z"/><path class="Graphic-Style-9" d="M60.49,53.96a38.7,38.7,0,0,1-8.5-1.32c.65-1.4,1.2-2.68,1.64-3.76,1.03.24,2.16.46,3.4.64A3.863,3.863,0,0,0,57,50,3.981,3.981,0,0,0,60.49,53.96Z"/><path class="Graphic-Style-9" d="M75.3,51.06A33.794,33.794,0,0,1,62,54c-.28,0-.55,0-.82-.01A3.988,3.988,0,0,0,65,50v-.01a45.314,45.314,0,0,0,9.37-1.11C74.64,49.54,74.95,50.27,75.3,51.06Z"/><path class="cls-6" d="M57.03,49.52c-1.24-.18-2.37-.4-3.4-.64A24.924,24.924,0,0,1,46,46c9.5-6.04,16.03-21.05,17.61-25.02"/><path class="cls-6" d="M64.39,20.98C65.97,24.95,72.5,39.96,82,46a24.924,24.924,0,0,1-7.63,2.88A45.311,45.311,0,0,1,65,49.99"/><path class="cls-6" d="M53.63,48.88C51.22,54.81,45.35,66.65,39,73a26.85,26.85,0,0,0,6.6,2.2c.8.18,1.68.37,2.64.54A85.621,85.621,0,0,0,62,76.98"/><path class="cls-6" d="M74.37,48.88c.98,2.39,2.5,5.74,4.41,9.31"/><path class="cls-6" d="M82.72,64.93A49.363,49.363,0,0,0,89,73a26.85,26.85,0,0,1-6.6,2.2c-.8.18-1.68.37-2.64.54a77.453,77.453,0,0,1-9.77,1.1"/><path class="cls-6" d="M48.24,75.74a85.063,85.063,0,0,1-3.67,8.59"/><path class="cls-6" d="M69,104.88C86.44,104.04,94,99,94,99c-5.72-3.82-11.57-15.84-14.24-23.26"/><path class="cls-6" d="M40.72,91.28C38.6,94.62,36.29,97.47,34,99c0,0,7.56,5.04,25,5.88"/><path class="cls-6" d="M69,104.88V115H59V104.88c1.58.08,3.25.12,5,.12S67.42,104.96,69,104.88Z"/><path class="cls-6" d="M65,49.99V50a4,4,0,0,1-8,0,3.866,3.866,0,0,1,.03-.48,4,4,0,0,1,7.97.47Z"/><path class="cls-6" d="M78.78,58.19A4.148,4.148,0,0,1,80,58a4,4,0,1,1-1.22.19Z"/><path class="cls-6" d="M44.57,84.33A3.983,3.983,0,1,1,43,84,3.906,3.906,0,0,1,44.57,84.33Z"/><path class="cls-6" d="M63.61,20.98a4,4,0,1,1,.78,0c-.13.01-.26.02-.39.02S63.74,20.99,63.61,20.98Z"/><path class="cls-6" d="M69.99,76.84A.86.86,0,0,1,70,77a4,4,0,0,1-8,0v-.02a4,4,0,0,1,7.99-.14Z"/><circle class="cls-6" cx="76" cy="93" r="4"/></g></svg>