<svg id="icons" xmlns="http://www.w3.org/2000/svg" viewBox="0 0 128 128"><defs><style>.Graphic-Style-10,.cls-4{fill:none;stroke:#493555;stroke-linecap:round;stroke-linejoin:round;}.Graphic-Style-10{stroke-width:6px;}.cls-1{fill:#ff6c65;}.Graphic-Style-9{fill:#493555;opacity:0.24;}.cls-2{fill:#ffeb73;}.cls-3{fill:#84ccfc;}.cls-4{stroke-width:2px;}</style></defs><title>present</title><path class="Graphic-Style-10" d="M101,43s-25.711,0-25.054-.01c5.973,0,23.892-3.073,21.9-11.3-2.178-9-14.7-8.284-27.289-.057A9.518,9.518,0,0,0,64,28.5a9.518,9.518,0,0,0-6.558,3.136c-12.586-8.226-25.111-8.947-27.289.057-1.991,8.223,15.928,11.3,21.9,11.3C52.711,43,27,43,27,43a2,2,0,0,0-2,2V57a2,2,0,0,0,2,2h2v42a2,2,0,0,0,2,2H97a2,2,0,0,0,2-2V59h2a2,2,0,0,0,2-2V45A2,2,0,0,0,101,43Z"/><g id="_Group_" data-name="&lt;Group&gt;"><path class="cls-1" d="M70.56,31.63c1.77,2.18,2.36,5.74-.9,11.37H58.34c-3.26-5.63-2.67-9.19-.9-11.37A9.509,9.509,0,0,1,64,28.5,9.509,9.509,0,0,1,70.56,31.63Z"/><path class="Graphic-Style-9" d="M70.56,31.63a8.171,8.171,0,0,0-2.984-2.217c.659,1.773.63,4.133-.724,7.248A3.957,3.957,0,0,1,63.211,39H56.53a19.751,19.751,0,0,0,1.81,4H69.66C72.92,37.37,72.33,33.81,70.56,31.63Z"/><path class="cls-1" d="M58.34,43H54c-.65,0-1.31,0-1.95-.01-5.97,0-23.89-3.07-21.9-11.3,2.18-9,14.71-8.28,27.29-.06C55.67,33.81,55.08,37.37,58.34,43Z"/><path class="cls-1" d="M97.85,31.69c1.99,8.23-15.93,11.3-21.9,11.3-.64.01-1.3.01-1.95.01H69.66c3.26-5.63,2.67-9.19.9-11.37C83.14,23.41,95.67,22.69,97.85,31.69Z"/><path class="Graphic-Style-9" d="M54.05,39H54c-.65,0-1.31,0-1.95-.01-5.139,0-19.121-2.278-21.648-8.161-.094.277-.18.563-.252.861-1.99,8.23,15.93,11.3,21.9,11.3.64.01,1.3.01,1.95.01h4.34a19.751,19.751,0,0,1-1.81-4Z"/><path class="Graphic-Style-9" d="M97.6,30.829C95.071,36.712,81.089,38.99,75.95,38.99c-.64.01-1.3.01-1.95.01H71.47a19.751,19.751,0,0,1-1.81,4H74c.65,0,1.31,0,1.95-.01,5.97,0,23.89-3.07,21.9-11.3C97.778,31.392,97.693,31.106,97.6,30.829Z"/><path class="cls-2" d="M74,43V59H54V43H74Z"/><rect class="cls-2" x="56" y="59" width="16" height="44"/><path class="cls-3" d="M103,45V57a2.006,2.006,0,0,1-2,2H74V43h27A2.006,2.006,0,0,1,103,45Z"/><path class="cls-3" d="M99,59v42a2.006,2.006,0,0,1-2,2H72V59H99Z"/><path class="cls-3" d="M56,59v44H31a2.006,2.006,0,0,1-2-2V59H56Z"/><path class="Graphic-Style-9" d="M97,99H31a2.006,2.006,0,0,1-2-2v4a2.006,2.006,0,0,0,2,2H97a2.006,2.006,0,0,0,2-2V97A2.006,2.006,0,0,1,97,99Z"/><path class="cls-3" d="M54,43V59H27a2.006,2.006,0,0,1-2-2V45a2.006,2.006,0,0,1,2-2Z"/><path class="Graphic-Style-9" d="M25,55h78a0,0,0,0,1,0,0v2a2,2,0,0,1-2,2H27a2,2,0,0,1-2-2V55A0,0,0,0,1,25,55Z"/><polygon class="Graphic-Style-9" points="99 61 29 63 29 59 99 59 99 61"/><path class="cls-4" d="M29,59H27a2.006,2.006,0,0,1-2-2V45a2.006,2.006,0,0,1,2-2H54"/><path class="cls-4" d="M74,43h27a2.006,2.006,0,0,1,2,2V57a2.006,2.006,0,0,1-2,2H99"/><path class="cls-4" d="M74,59H99v42a2.006,2.006,0,0,1-2,2H72"/><path class="cls-4" d="M56,103H31a2.006,2.006,0,0,1-2-2V59H54"/><polyline class="cls-4" points="74 43 74 59 72 59"/><polyline class="cls-4" points="54.05 43 58.34 43 69.66 43 73.95 43"/><polyline class="cls-4" points="56 59 54 59 54 43"/><rect class="cls-4" x="56" y="59" width="16" height="44"/><path class="cls-4" d="M57.44,31.63c-12.58-8.22-25.11-8.94-27.29.06-1.99,8.23,15.93,11.3,21.9,11.3.64.01,1.3.01,1.95.01h.05"/><path class="cls-4" d="M70.56,31.63c12.58-8.22,25.11-8.94,27.29.06,1.99,8.23-15.93,11.3-21.9,11.3-.64.01-1.3.01-1.95.01h-.05"/><path class="cls-4" d="M69.66,43c3.26-5.63,2.67-9.19.9-11.37A9.509,9.509,0,0,0,64,28.5a9.509,9.509,0,0,0-6.56,3.13c-1.77,2.18-2.36,5.74.9,11.37"/></g></svg>