<svg xmlns="http://www.w3.org/2000/svg" viewBox="0 0 128 128"><defs><style>.cls-1{isolation:isolate;}.Graphic-Style-10,.cls-10{fill:none;stroke:#493555;stroke-linecap:round;stroke-linejoin:round;}.Graphic-Style-10{stroke-width:6px;}.cls-2{fill:#ffeb73;}.cls-3,.cls-9{fill:#493555;}.cls-4{fill:#25db7e;}.cls-5{fill:#f4b86f;}.cls-6,.cls-8{fill:#fff;}.cls-6,.cls-7,.cls-9{opacity:0.24;}.cls-6,.cls-7{mix-blend-mode:overlay;}.cls-10{stroke-width:2px;}</style></defs><title>reindeer</title><g class="cls-1"><g id="icons"><path class="Graphic-Style-10" d="M104,52a9.536,9.536,0,0,0-1.233-1.034h0c-.033-.024-.07-.044-.1-.067h0a15.228,15.228,0,0,0-4.326-1.976l-.052-.016c-.242-.071-.486-.138-.732-.2l-.1-.026q-.358-.091-.721-.171l-.123-.028q-.36-.078-.722-.147l-.125-.024q-.364-.068-.73-.127l-.121-.019q-.37-.058-.74-.109l-.108-.014q-.379-.05-.757-.092l-.073-.008q-.4-.043-.79-.079h-.007a50.518,50.518,0,0,0-6.079-.147h-.043l-.561.022-.089,0-.485.024-.125.007-.424.026-.129.008-.377.026-.12.009-.33.026-.117.01-.273.024-.118.011-.212.02-.108.011-.161.017-.078.009-.118.013-.04,0L82.33,48a24.965,24.965,0,0,0-3.91-3.42c17.29-3.78,21.92-14.19,23.14-19.04a2.034,2.034,0,0,0-3.9-1.15c-.92,2.9-4.26,9.67-15.8,13.26A26.14,26.14,0,0,0,85.93,25.3c0-.05.01-.1.01-.16a2.152,2.152,0,0,0-4.25-.47C80.7,28.96,76.9,40,64,40S47.3,28.96,46.31,24.67a2.152,2.152,0,0,0-4.25.47c0,.06.01.11.01.16a26.14,26.14,0,0,0,4.07,12.35C34.6,34.06,31.26,27.29,30.34,24.39a2.032,2.032,0,0,0-3.96.64,2.221,2.221,0,0,0,.06.51c1.22,4.85,5.85,15.26,23.14,19.04A24.965,24.965,0,0,0,45.67,48l-.119-.014-.04,0-.118-.013-.078-.009-.161-.017-.108-.011-.212-.02-.118-.011-.273-.024-.117-.01L44,47.841l-.12-.009-.377-.026-.129-.008-.424-.026-.125-.007-.485-.024-.089,0-.561-.022h-.043a50.519,50.519,0,0,0-6.079.147h-.007q-.394.035-.79.079l-.073.008q-.378.042-.757.092l-.108.014q-.37.05-.74.109l-.121.019q-.366.059-.73.127l-.125.024q-.363.069-.722.147l-.123.028q-.363.081-.721.171l-.1.026c-.246.064-.491.13-.732.2l-.052.016A15.228,15.228,0,0,0,25.337,50.9h0c-.034.023-.07.044-.1.067h0A9.536,9.536,0,0,0,24,52s1.41,8.29,15.01,12.56c-.01.15-.01.29-.01.44,0,19,14,40,25,40S89,84,89,65c0-.15,0-.29-.01-.44C102.59,60.29,104,52,104,52Z"/><g id="_Group_" data-name="&lt;Group&gt;"><path class="cls-2" d="M85.94,25.14c0,.06-.01.11-.01.16a26.14,26.14,0,0,1-4.07,12.35A60.093,60.093,0,0,1,64,40c12.9,0,16.7-11.04,17.69-15.33a2.152,2.152,0,0,1,4.25.47Z"/><path class="cls-2" d="M99.59,23a2.032,2.032,0,0,1,1.97,2.54c-1.22,4.85-5.85,15.26-23.14,19.04A24.822,24.822,0,0,0,64,40a60.093,60.093,0,0,0,17.86-2.35c11.54-3.59,14.88-10.36,15.8-13.26A2.02,2.02,0,0,1,99.59,23Z"/><path class="cls-2" d="M46.31,24.67C47.3,28.96,51.1,40,64,40a60.093,60.093,0,0,1-17.86-2.35A26.14,26.14,0,0,1,42.07,25.3c0-.05-.01-.1-.01-.16a2.152,2.152,0,0,1,4.25-.47Z"/><path class="cls-2" d="M46.14,37.65A60.093,60.093,0,0,0,64,40a24.822,24.822,0,0,0-14.42,4.58C32.29,40.8,27.66,30.39,26.44,25.54a2.22,2.22,0,0,1-.06-.51,2.032,2.032,0,0,1,3.96-.64C31.26,27.29,34.6,34.06,46.14,37.65Z"/><circle class="cls-3" cx="74" cy="66" r="4"/><circle class="cls-3" cx="54" cy="66" r="4"/><circle class="cls-4" cx="53" cy="65" r="2"/><circle class="cls-4" cx="73" cy="65" r="2"/><path class="cls-5" d="M24,52c6-6,21.67-4,21.67-4a24.837,24.837,0,0,0-6.66,16.56C25.41,60.29,24,52,24,52Z"/><path class="cls-5" d="M104,52s-1.41,8.29-15.01,12.56A24.837,24.837,0,0,0,82.33,48S98,46,104,52Z"/><path class="cls-6" d="M102.664,50.9C95.961,46.263,82.33,48,82.33,48a25.061,25.061,0,0,1,2.775,3.6A87.223,87.223,0,0,1,102.664,50.9Z"/><path class="cls-6" d="M25.336,50.9C32.039,46.263,45.67,48,45.67,48a25.061,25.061,0,0,0-2.775,3.6A87.223,87.223,0,0,0,25.336,50.9Z"/><path class="cls-5" d="M88.99,64.56c.01.15.01.29.01.44,0,19-14,40-25,40S39,84,39,65c0-.15,0-.29.01-.44a24.994,24.994,0,0,1,49.98,0ZM78,66a4,4,0,1,0-4,4A4,4,0,0,0,78,66ZM69.56,91.87a2.231,2.231,0,0,0-.4-3.07,8.3,8.3,0,0,0-10.32,0,2.231,2.231,0,0,0-.4,3.07C59.9,93.84,62.47,97,64,97S68.1,93.84,69.56,91.87ZM58,66a4,4,0,1,0-4,4A4,4,0,0,0,58,66Z"/><g class="cls-7"><path class="cls-8" d="M45.67,52A24.965,24.965,0,0,1,88.918,67.412C88.966,66.606,89,65.8,89,65c0-.15,0-.29-.01-.44a24.994,24.994,0,0,0-49.98,0c-.01.15-.01.29-.01.44,0,.8.034,1.606.082,2.412A24.829,24.829,0,0,1,45.67,52Z"/></g><path class="cls-8" d="M82.15,89.57C77.11,98.55,70.09,105,64,105S50.89,98.55,45.85,89.57C48.24,83.45,55.46,79,64,79S79.76,83.45,82.15,89.57Z"/><path class="cls-3" d="M69.16,88.8a2.231,2.231,0,0,1,.4,3.07C68.1,93.84,65.53,97,64,97s-4.1-3.16-5.56-5.13a2.231,2.231,0,0,1,.4-3.07,8.3,8.3,0,0,1,10.32,0Z"/><path class="cls-9" d="M88.99,60.56c.01.15.01.29.01.44,0,19-14,40-25,40S39,80,39,61c0-.15,0-.29.01-.44-8.384-2.632-12.132-6.791-13.777-9.595A9.536,9.536,0,0,0,24,52s1.41,8.29,15.01,12.56c-.01.15-.01.29-.01.44,0,19,14,40,25,40S89,84,89,65c0-.15,0-.29-.01-.44C102.59,60.29,104,52,104,52a9.536,9.536,0,0,0-1.233-1.035C101.122,53.769,97.374,57.928,88.99,60.56Z"/><path class="cls-10" d="M88.99,64.56c.01.15.01.29.01.44,0,19-14,40-25,40S39,84,39,65c0-.15,0-.29.01-.44a24.994,24.994,0,0,1,49.98,0Z"/><path class="cls-10" d="M82.33,48S98,46,104,52c0,0-1.41,8.29-15.01,12.56"/><path class="cls-10" d="M39.01,64.56C25.41,60.29,24,52,24,52c6-6,21.67-4,21.67-4"/><path class="cls-10" d="M64,97c1.53,0,4.1-3.16,5.56-5.13a2.231,2.231,0,0,0-.4-3.07,8.3,8.3,0,0,0-10.32,0,2.231,2.231,0,0,0-.4,3.07C59.9,93.84,62.47,97,64,97Z"/><circle class="cls-10" cx="54" cy="66" r="4"/><circle class="cls-10" cx="74" cy="66" r="4"/><path class="cls-10" d="M49.58,44.58C32.29,40.8,27.66,30.39,26.44,25.54a2.22,2.22,0,0,1-.06-.51,2.032,2.032,0,0,1,3.96-.64c.92,2.9,4.26,9.67,15.8,13.26A60.093,60.093,0,0,0,64,40a60.093,60.093,0,0,0,17.86-2.35c11.54-3.59,14.88-10.36,15.8-13.26a2.034,2.034,0,0,1,3.9,1.15c-1.22,4.85-5.85,15.26-23.14,19.04"/><path class="cls-10" d="M46.14,37.65A26.14,26.14,0,0,1,42.07,25.3c0-.05-.01-.1-.01-.16a2.152,2.152,0,0,1,4.25-.47C47.3,28.96,51.1,40,64,40"/><path class="cls-10" d="M64,40c12.9,0,16.7-11.04,17.69-15.33a2.152,2.152,0,0,1,4.25.47c0,.06-.01.11-.01.16a26.14,26.14,0,0,1-4.07,12.35"/><path class="cls-10" d="M45.85,89.57C48.24,83.45,55.46,79,64,79s15.76,4.45,18.15,10.57"/></g></g></g></svg>