<svg xmlns="http://www.w3.org/2000/svg" viewBox="0 0 128 128"><defs><style>.cls-1{isolation:isolate;}.cls-13,.cls-2,.cls-3{fill:none;stroke-linecap:round;stroke-linejoin:round;}.cls-2{stroke:#fff;stroke-width:10px;}.cls-13,.cls-3{stroke:#493555;}.cls-3{stroke-width:6px;}.cls-4{fill:#edf2f4;}.cls-5{fill:#ff6c65;}.cls-6{fill:#ffe1c0;}.cls-7{fill:#fff;}.Graphic-Style-8,.cls-10,.cls-8{fill:#493555;}.cls-12,.cls-8{opacity:0.24;}.cls-9{fill:#84ccfc;}.cls-10{opacity:0.12;}.cls-11{fill:#efc197;}.cls-12{mix-blend-mode:overlay;}.cls-13{stroke-width:2px;}</style></defs><title>santa</title><g class="cls-1"><g id="icons"><path class="cls-2" d="M99.28,67.29A13.97,13.97,0,0,1,99,58c3-11-1-22-6-29C85.09,17.93,75,13,62,13,40.1,13,29.03,27.98,34.09,47.32a6.1,6.1,0,0,0-2.33,1.44A6,6,0,0,0,36,59V78.34A17.7,17.7,0,0,1,30,73c-.37,7.35,2.1,12.94,6.01,16.53a26,26,0,0,0,51.98,0,17.745,17.745,0,0,0,4.22-5.92,9,9,0,1,0,7.07-16.32Z"/><path class="cls-3" d="M99.28,67.29A13.97,13.97,0,0,1,99,58c3-11-1-22-6-29C85.09,17.93,75,13,62,13,40.1,13,29.03,27.98,34.09,47.32a6.1,6.1,0,0,0-2.33,1.44A6,6,0,0,0,36,59V78.34A17.7,17.7,0,0,1,30,73c-.37,7.35,2.1,12.94,6.01,16.53a26,26,0,0,0,51.98,0,17.745,17.745,0,0,0,4.22-5.92,9,9,0,1,0,7.07-16.32Z"/><g id="_Group_" data-name="&lt;Group&gt;"><path class="cls-4" d="M106,76a8.975,8.975,0,0,1-13.79,7.61A23.091,23.091,0,0,0,94,73a17.736,17.736,0,0,1-5.73,5.19A8.818,8.818,0,0,1,88,76a9,9,0,0,1,9-9,8.425,8.425,0,0,1,1.52.13,6.4,6.4,0,0,1,.76.16A9,9,0,0,1,106,76Z"/><path class="cls-5" d="M99.28,67.29A9.018,9.018,0,0,0,97,67a9.014,9.014,0,0,0-9,9V59a5.941,5.941,0,0,0,2.9-.76,6.24,6.24,0,0,0,1.34-1,6,6,0,0,0-3.07-10.13A6.444,6.444,0,0,0,88,47H36a5.756,5.756,0,0,0-1.91.32C29.66,30.38,37.6,16.78,54.37,13.68A40.939,40.939,0,0,1,62,13c10.93,0,19.8,3.48,27.04,11.16A45.117,45.117,0,0,1,93,29c4.89,6.84,8.82,17.5,6.19,28.24-.06.26-.12.51-.19.76A13.97,13.97,0,0,0,99.28,67.29Z"/><path class="cls-6" d="M36,59V78.34c5.62,3.12,12.84,3.58,19.04,2.21C55.35,78,58.34,76,62,76s6.65,2,6.96,4.55a28.853,28.853,0,0,0,17.01-1.23A21.069,21.069,0,0,0,88,78.34V59ZM50,72a4,4,0,1,1,4-4A4,4,0,0,1,50,72Zm24,0a4,4,0,1,1,4-4A4,4,0,0,1,74,72Z"/><path class="cls-7" d="M87.99,89.53a2.808,2.808,0,0,1-.01.29,26,26,0,0,1-37.96,22.26,25.26,25.26,0,0,1-4.44-2.93,25.91,25.91,0,0,1-8.74-13.57c-.02-.08-.04-.15-.06-.23a25.915,25.915,0,0,1-.77-5.82,18.777,18.777,0,0,0,19.07,3.48,8,8,0,0,0,1.02,1.37,5.863,5.863,0,0,0,.62.6,7.93,7.93,0,0,0,10.78-.19c.05-.05.1-.09.15-.15a7.763,7.763,0,0,0,1.27-1.63,19.462,19.462,0,0,0,14.01-.25,16.693,16.693,0,0,0,2.38-1.22c.24-.14.47-.29.7-.45.14-.09.27-.18.4-.28.23-.16.46-.33.68-.51C87.4,90.06,87.7,89.8,87.99,89.53Z"/><path class="cls-8" d="M62,111a25.838,25.838,0,0,1-11.98-2.92,25.26,25.26,0,0,1-4.44-2.93,25.91,25.91,0,0,1-8.74-13.57c-.02-.08-.04-.15-.06-.23q-.178-.71-.316-1.433c-.151-.129-.307-.252-.454-.387a25.915,25.915,0,0,0,.77,5.82c.02.08.04.15.06.23a25.91,25.91,0,0,0,8.74,13.57,25.26,25.26,0,0,0,4.44,2.93A26,26,0,0,0,87.98,89.82a2.808,2.808,0,0,0,.01-.29c-.151.14-.312.267-.468.4A25.992,25.992,0,0,1,62,111Z"/><path class="cls-8" d="M95,53c0-12-6-18-6-18l-1.965.281a12.951,12.951,0,0,1,1.653,11.762A6,6,0,0,1,88,59V78s-.25-8.25,5.927-10.359C92.5,60.947,95,58.534,95,53Z"/><circle class="Graphic-Style-8" cx="74" cy="68" r="4"/><circle class="cls-9" cx="73" cy="67" r="2"/><path class="cls-6" d="M68.92,93.01a8,8,0,0,1-13.84,0A22.271,22.271,0,0,0,62,89,22.271,22.271,0,0,0,68.92,93.01Z"/><circle class="Graphic-Style-8" cx="50" cy="68" r="4"/><circle class="cls-9" cx="49" cy="67" r="2"/><polygon class="cls-10" points="36 51 36 63 88 61 88 51 36 51"/><path class="cls-7" d="M89.17,47.11A6,6,0,0,1,88,59H36a6,6,0,0,1-4.24-10.24,6.1,6.1,0,0,1,2.33-1.44A5.757,5.757,0,0,1,36,47H88A6.445,6.445,0,0,1,89.17,47.11Z"/><path class="cls-8" d="M92.24,53.24A6.021,6.021,0,0,1,88,55H36a6.018,6.018,0,0,1-5.647-4A5.925,5.925,0,0,0,30,53a6.018,6.018,0,0,0,6,6H88a6.009,6.009,0,0,0,6-6,5.934,5.934,0,0,0-.352-2A6.1,6.1,0,0,1,92.24,53.24Z"/><path class="cls-8" d="M97,81a9,9,0,0,1-8.769-7,9,9,0,1,0,17.539,0A9,9,0,0,1,97,81Z"/><path class="cls-7" d="M94,73a23.091,23.091,0,0,1-1.79,10.61,17.745,17.745,0,0,1-4.22,5.92,18.777,18.777,0,0,1-19.07,3.48A22.271,22.271,0,0,1,62,89V86c3.87,0,7-2.24,7-5a2.282,2.282,0,0,0-.04-.45c6.2,1.37,13.42.91,19.04-2.21l.27-.15A17.735,17.735,0,0,0,94,73Z"/><path class="cls-11" d="M68.96,80.55A2.282,2.282,0,0,1,69,81c0,2.76-3.13,5-7,5s-7-2.24-7-5a2.282,2.282,0,0,1,.04-.45C55.35,78,58.34,76,62,76S68.65,78,68.96,80.55Z"/><path class="cls-8" d="M68.408,79.008C67.326,80.769,64.868,82,62,82s-5.326-1.231-6.408-2.992a3.875,3.875,0,0,0-.552,1.542A2.285,2.285,0,0,0,55,81c0,2.76,3.13,5,7,5s7-2.24,7-5a2.285,2.285,0,0,0-.04-.45A3.875,3.875,0,0,0,68.408,79.008Z"/><path class="cls-7" d="M62,86v3a22.271,22.271,0,0,1-6.92,4.01,18.777,18.777,0,0,1-19.07-3.48C32.1,85.94,29.63,80.35,30,73a17.7,17.7,0,0,0,6,5.34c5.62,3.12,12.84,3.58,19.04,2.21A2.282,2.282,0,0,0,55,81C55,83.76,58.13,86,62,86Z"/><path class="cls-10" d="M93.89,77.139a21.265,21.265,0,0,1-1.68,6.471,17.745,17.745,0,0,1-4.22,5.92,18.777,18.777,0,0,1-19.07,3.48,22.148,22.148,0,0,1-5.727-3.088,9.191,9.191,0,0,1-2.387,0A22.148,22.148,0,0,1,55.08,93.01a18.777,18.777,0,0,1-19.07-3.48,19.127,19.127,0,0,1-5.905-12.4c-.033-.046-.072-.086-.1-.132-.37,7.35,2.1,12.94,6.01,16.53a18.777,18.777,0,0,0,19.07,3.48A22.273,22.273,0,0,0,62,93a22.273,22.273,0,0,0,6.92,4.01,18.777,18.777,0,0,0,19.07-3.48,17.745,17.745,0,0,0,4.22-5.92A23.091,23.091,0,0,0,94,77C93.966,77.049,93.925,77.091,93.89,77.139Z"/><path class="cls-8" d="M93.89,73.139a21.265,21.265,0,0,1-1.68,6.471,17.745,17.745,0,0,1-4.22,5.92,18.777,18.777,0,0,1-19.07,3.48,22.148,22.148,0,0,1-5.727-3.088,9.191,9.191,0,0,1-2.387,0A22.148,22.148,0,0,1,55.08,89.01a18.777,18.777,0,0,1-19.07-3.48,19.127,19.127,0,0,1-5.905-12.4c-.033-.046-.072-.086-.1-.132-.37,7.35,2.1,12.94,6.01,16.53a18.777,18.777,0,0,0,19.07,3.48A22.273,22.273,0,0,0,62,89a22.273,22.273,0,0,0,6.92,4.01,18.777,18.777,0,0,0,19.07-3.48,17.745,17.745,0,0,0,4.22-5.92A23.091,23.091,0,0,0,94,73C93.966,73.049,93.925,73.091,93.89,73.139Z"/><g class="cls-12"><path class="cls-7" d="M54.37,17.68A40.939,40.939,0,0,1,62,17c10.93,0,19.8,3.48,27.04,11.16A45.117,45.117,0,0,1,93,33a37.939,37.939,0,0,1,6.953,19.133C100.528,43.2,97.111,34.751,93,29a45.117,45.117,0,0,0-3.96-4.84C81.8,16.48,72.93,13,62,13a40.939,40.939,0,0,0-7.63.68c-14.4,2.662-22.283,13.072-21.418,26.688C33.735,28.74,41.414,20.075,54.37,17.68Z"/></g><path class="cls-13" d="M34.09,47.32C29.03,27.98,40.1,13,62,13c13,0,23.09,4.93,31,16,5,7,9,18,6,29a13.971,13.971,0,0,0,.28,9.29"/><path class="cls-13" d="M88.27,78.19A8.818,8.818,0,0,1,88,76a9.021,9.021,0,1,1,4.21,7.61"/><line class="cls-13" x1="36" y1="59" x2="36" y2="78.34"/><polyline class="cls-13" points="88 78.34 88 76 88 59"/><path class="cls-13" d="M36.01,89.53a26,26,0,0,0,51.98,0"/><path class="cls-13" d="M55.08,93.01a8,8,0,0,0,13.84,0"/><circle class="cls-13" cx="50" cy="68" r="4"/><circle class="cls-13" cx="74" cy="68" r="4"/><path class="cls-13" d="M68.96,80.55c6.2,1.37,13.42.91,19.04-2.21l.27-.15A17.735,17.735,0,0,0,94,73a23.091,23.091,0,0,1-1.79,10.61,17.745,17.745,0,0,1-4.22,5.92,18.777,18.777,0,0,1-19.07,3.48A22.271,22.271,0,0,1,62,89a22.271,22.271,0,0,1-6.92,4.01,18.777,18.777,0,0,1-19.07-3.48C32.1,85.94,29.63,80.35,30,73a17.7,17.7,0,0,0,6,5.34c5.62,3.12,12.84,3.58,19.04,2.21"/><path class="cls-13" d="M68.96,80.55A2.282,2.282,0,0,1,69,81c0,2.76-3.13,5-7,5s-7-2.24-7-5a2.282,2.282,0,0,1,.04-.45C55.35,78,58.34,76,62,76S68.65,78,68.96,80.55Z"/><path class="cls-13" d="M88,59H36a6,6,0,0,1-4.24-10.24,6.1,6.1,0,0,1,2.33-1.44A5.757,5.757,0,0,1,36,47H88a6.445,6.445,0,0,1,1.17.11A6,6,0,0,1,88,59Z"/><path class="cls-13" d="M88,36a24.813,24.813,0,0,1,1.17,11.11"/><path class="cls-13" d="M85,37c3,0,5-3,5-3"/></g></g></g></svg>